<svg width="136" height="136" viewBox="0 0 136 136" fill="none" xmlns="http://www.w3.org/2000/svg">
<circle cx="68" cy="68" r="66" fill="#C4C4C4" stroke="white" stroke-width="4"/>
<path d="M132 68C132 103.346 103.346 132 68 132C32.6538 132 4 103.346 4 68C4 32.6538 32.6538 4 68 4C103.346 4 132 32.6538 132 68Z" fill="#71ABA1"/>
<path d="M105.333 31H30.6667V40.25H105.333V31ZM110 77.25V68L105.333 44.875H30.6667L26 68V77.25H30.6667V105H77.3333V77.25H96V105H105.333V77.25H110ZM68 95.75H40V77.25H68V95.75Z" fill="white"/>
</svg>
